<svg xmlns="http://www.w3.org/2000/svg" version="1.1" xmlns:xlink="http://www.w3.org/1999/xlink" xmlns:svgjs="http://svgjs.dev/svgjs" width="1000" height="1000" viewBox="0 0 1000 1000"><rect width="1000" height="1000" fill="#694263"></rect><g transform="matrix(0.7,0,0,0.7,149.57575757575756,445.3151854299953)"><svg viewBox="0 0 396 62" data-background-color="#694263" preserveAspectRatio="xMidYMid meet" height="156" width="1000" xmlns="http://www.w3.org/2000/svg" xmlns:xlink="http://www.w3.org/1999/xlink"><g id="tight-bounds" transform="matrix(1,0,0,1,0.2400000000000091,0.04815479249353416)"><svg viewBox="0 0 395.52 61.90369041501295" height="61.90369041501295" width="395.52"><g><svg viewBox="0 0 504.4865315539326 78.95827788192331" height="61.90369041501295" width="395.52"><g transform="matrix(1,0,0,1,108.96653155393261,10.912468216676814)"><svg viewBox="0 0 395.52 57.13334144856968" height="57.13334144856968" width="395.52"><g><svg viewBox="0 0 395.52 57.13334144856968" height="57.13334144856968" width="395.52"><g><svg viewBox="0 0 395.52 57.13334144856968" height="57.13334144856968" width="395.52"><g transform="matrix(1,0,0,1,0,0)"><svg width="395.52" viewBox="3.25 -35.1 246.42 35.6" height="57.13334144856968" data-palette-color="#f17ed7"><path d="M9.95-35.1L9.55-10.25 9.9 0 3.25 0 3.6-9.65 3.3-34.6 9.95-35.1ZM34.95-11.6L34.2-10.8 20.7-10.7Q21.15-4.45 27.05-4.45L27.05-4.45Q30.15-4.45 33.95-6.2L33.95-6.2 34.5-5.85 33.5-0.9Q29.7 0.5 26.35 0.5L26.35 0.5Q20.85 0.5 17.72-2.7 14.6-5.9 14.6-11.55L14.6-11.55Q14.6-17.15 17.65-20.43 20.7-23.7 25.9-23.7L25.9-23.7Q30.35-23.7 32.77-21.28 35.2-18.85 35.2-14.5L35.2-14.5Q35.2-13.35 34.95-11.6L34.95-11.6ZM29.3-14.55L29.4-15.25Q29.4-17.25 28.5-18.28 27.6-19.3 25.85-19.3L25.85-19.3Q23.9-19.3 22.6-18.03 21.3-16.75 20.85-14.35L20.85-14.35 29.3-14.55ZM46.5-35.1L46.09-10.25 46.45 0 39.8 0 40.15-9.65 39.84-34.6 46.5-35.1ZM59.64-35.1L59.24-10.25 59.59 0 52.94 0 53.29-9.65 52.99-34.6 59.64-35.1ZM65.99 0L66.34-9.6 66.09-22.8 72.64-23.35 72.34-10.25 72.64 0 65.99 0ZM69.49-34.65Q71.04-34.65 71.92-33.75 72.79-32.85 72.79-31.25L72.79-31.25Q72.79-29.55 71.84-28.55 70.89-27.55 69.24-27.55L69.24-27.55Q67.59-27.55 66.72-28.45 65.84-29.35 65.84-31L65.84-31Q65.84-32.65 66.81-33.65 67.79-34.65 69.49-34.65L69.49-34.65ZM90.14-23.4L90.69-19.75 93.53-6.7 93.94-6.7 97.44-19.4 98.23-23.25 104.69-23.25 105.19-19.75 108.14-6.75 108.53-6.75 111.94-19.4 112.73-23.25 118.34-23.25 111.09 0 104.84 0 101.28-14.95 100.84-14.95 96.69 0 90.14 0 84.09-23.1 90.14-23.4ZM139.53-11.6L138.78-10.8 125.28-10.7Q125.73-4.45 131.63-4.45L131.63-4.45Q134.73-4.45 138.53-6.2L138.53-6.2 139.08-5.85 138.08-0.9Q134.28 0.5 130.93 0.5L130.93 0.5Q125.43 0.5 122.31-2.7 119.18-5.9 119.18-11.55L119.18-11.55Q119.18-17.15 122.23-20.43 125.28-23.7 130.48-23.7L130.48-23.7Q134.93-23.7 137.36-21.28 139.78-18.85 139.78-14.5L139.78-14.5Q139.78-13.35 139.53-11.6L139.53-11.6ZM133.88-14.55L133.98-15.25Q133.98-17.25 133.08-18.28 132.18-19.3 130.43-19.3L130.43-19.3Q128.48-19.3 127.18-18.03 125.88-16.75 125.43-14.35L125.43-14.35 133.88-14.55ZM153.53-23.7Q157.38-23.7 159.56-21.98 161.73-20.25 161.73-17.15L161.73-17.15Q161.73-16.25 161.43-11.45L161.43-11.45Q161.38-10.05 161.28-8.58 161.18-7.1 161.18-6.05L161.18-6.05Q161.18-5.2 161.43-4.88 161.68-4.55 162.33-4.55L162.33-4.55Q162.83-4.55 163.63-4.75L163.63-4.75 164.13-4.35 163.53-0.85Q161.93 0.2 159.88 0.4L159.88 0.4Q158.38 0.25 157.38-0.68 156.38-1.6 156.03-3.25L156.03-3.25 155.68-3.25Q153.18-0.6 150.53 0.45L150.53 0.45Q146.93 0.4 144.88-1.45 142.83-3.3 142.83-6.5L142.83-6.5Q142.83-9 144.11-10.43 145.38-11.85 147.98-12.35L147.98-12.35 155.63-13.8 155.63-15.85Q155.63-19.1 152.43-19.1L152.43-19.1Q150.88-19.1 149.16-18.4 147.43-17.7 145.28-16.2L145.28-16.2 144.78-16.5 144.03-20.9Q146.18-22.25 148.63-22.98 151.08-23.7 153.53-23.7L153.53-23.7ZM155.58-10.45L150.28-9.3Q149.48-9.1 149.11-8.63 148.73-8.15 148.73-7.2L148.73-7.2Q148.73-5.9 149.43-5.18 150.13-4.45 151.38-4.45L151.38-4.45Q153.33-4.45 155.48-6.75L155.48-6.75 155.58-10.45ZM177.83-4.9Q179.43-4.9 181.18-5.75L181.18-5.75 181.73-5.25 181.08-1.3Q178.53 0 175.88 0.3L175.88 0.3Q169.13-0.4 169.13-6.3L169.13-6.3 169.38-10.45 169.33-19.05 166.23-19.05 165.98-19.4 166.33-23.05 169.28-23.05 169.28-26.9 175.33-28.85 175.78-28.45 175.63-23.05 181.58-23.05 181.78-22.7 181.48-19.05 175.53-19.05 175.23-7.85Q175.23-6.25 175.83-5.58 176.43-4.9 177.83-4.9L177.83-4.9ZM199.48 0L199.83-14.5Q199.88-16.3 199.08-17.25 198.28-18.2 196.73-18.2L196.73-18.2Q194.48-18.2 191.93-16.05L191.93-16.05 191.83-10.25 192.18 0 185.53 0 185.88-9.65 185.58-34.6 192.23-35.1 191.98-19.95 192.28-19.95Q195.03-22.45 198.33-23.55L198.33-23.55Q202.13-23.55 204.1-21.83 206.08-20.1 206.03-16.85L206.03-16.85 205.88-10.2 206.13 0 199.48 0ZM230.72-11.6L229.97-10.8 216.47-10.7Q216.92-4.45 222.82-4.45L222.82-4.45Q225.92-4.45 229.72-6.2L229.72-6.2 230.27-5.85 229.27-0.9Q225.47 0.5 222.12 0.5L222.12 0.5Q216.62 0.5 213.5-2.7 210.37-5.9 210.37-11.55L210.37-11.55Q210.37-17.15 213.42-20.43 216.47-23.7 221.67-23.7L221.67-23.7Q226.12-23.7 228.55-21.28 230.97-18.85 230.97-14.5L230.97-14.5Q230.97-13.35 230.72-11.6L230.72-11.6ZM225.07-14.55L225.17-15.25Q225.17-17.25 224.27-18.28 223.37-19.3 221.62-19.3L221.62-19.3Q219.67-19.3 218.37-18.03 217.07-16.75 216.62-14.35L216.62-14.35 225.07-14.55ZM248.42-23.3Q248.87-23.3 249.67-23.2L249.67-23.2 249.67-17.05 248.97-16.8Q248.12-17.15 247.12-17.15L247.12-17.15Q244.22-17.15 241.87-13.4L241.87-13.4 241.87-10.25 242.22 0 235.57 0 235.97-9.6 235.67-22.8 241.97-23.35 241.92-18.8 242.32-18.8Q244.77-23.3 248.42-23.3L248.42-23.3Z" opacity="1" transform="matrix(1,0,0,1,0,0)" fill="#f17ed7" class="undefined-text-0" data-fill-palette-color="primary" id="text-0"></path></svg></g></svg></g></svg></g></svg></g><g><svg viewBox="0 0 95.47872083812008 78.95827788192331" height="78.95827788192331" width="95.47872083812008"><g><svg xmlns="http://www.w3.org/2000/svg" xmlns:xlink="http://www.w3.org/1999/xlink" version="1.1" x="0" y="0" viewBox="0.2629999999999989 9.443999999999997 98.08300000000003 81.11194516967902" enable-background="new 0 0 100 100" xml:space="preserve" height="78.95827788192331" width="95.47872083812008" class="icon-icon-0" data-fill-palette-color="accent" id="icon-0"><g fill="#fcfcfc" data-fill-palette-color="accent"><path d="M26.154 17.91c0-2.448 0-4.896 0-7.344 0-1.496-2.32-1.496-2.32 0 0 2.448 0 4.896 0 7.344 0.384-0.027 0.77-0.046 1.161-0.046C25.384 17.864 25.771 17.883 26.154 17.91z" fill="#fcfcfc" data-fill-palette-color="accent"></path><path d="M23.833 57.784c0 0.688 0.489 1.056 1.019 1.111-0.416-0.744-0.759-1.535-1.019-2.361C23.833 56.95 23.833 57.367 23.833 57.784z" fill="#fcfcfc" data-fill-palette-color="accent"></path><path d="M8.684 34.175c0-0.391 0.019-0.776 0.046-1.16-2.448 0-4.896 0-7.345 0-1.496 0-1.496 2.32 0 2.32 2.448 0 4.896 0 7.345 0C8.702 34.951 8.684 34.565 8.684 34.175z" fill="#fcfcfc" data-fill-palette-color="accent"></path><path d="M12.678 44.851c-1.733 1.733-3.466 3.466-5.199 5.198-1.06 1.06 0.582 2.7 1.641 1.642 1.733-1.733 3.465-3.466 5.199-5.199C13.734 45.984 13.186 45.436 12.678 44.851z" fill="#fcfcfc" data-fill-palette-color="accent"></path><path d="M37.31 23.5c1.733-1.733 3.466-3.466 5.199-5.199 1.059-1.059-0.582-2.7-1.641-1.641-1.733 1.733-3.465 3.466-5.199 5.199C36.254 22.367 36.802 22.915 37.31 23.5z" fill="#fcfcfc" data-fill-palette-color="accent"></path><path d="M12.678 23.5c0.508-0.585 1.056-1.133 1.641-1.641-1.733-1.733-3.465-3.466-5.198-5.199-1.059-1.059-2.7 0.582-1.641 1.641C9.212 20.034 10.945 21.767 12.678 23.5z" fill="#fcfcfc" data-fill-palette-color="accent"></path><path fill="#fcfcfc" d="M35.909 40.079c0.305 0 0.62 0.014 0.951 0.043-0.132-0.935-0.198-1.875-0.198-2.804 0-2.738 0.552-5.351 1.546-7.732-1.904-5.466-7.106-9.401-13.213-9.401-7.714 0-13.99 6.276-13.99 13.99 0 7.421 5.808 13.508 13.116 13.961C25.965 43.425 30.552 40.079 35.909 40.079z" data-fill-palette-color="accent"></path><path d="M47.75 65.466c-5.462 7.801-10.925 15.603-16.388 23.403-0.86 1.229 1.152 2.387 2.004 1.172 5.732-8.187 11.464-16.373 17.195-24.56L47.75 65.466z" fill="#fcfcfc" data-fill-palette-color="accent"></path><path d="M55.73 65.512c-3.821 5.456-7.642 10.913-11.462 16.37-0.861 1.229 1.152 2.387 2.003 1.171 4.09-5.842 8.181-11.684 12.271-17.524L55.73 65.512z" fill="#fcfcfc" data-fill-palette-color="accent"></path><path d="M63.71 65.559c-4.689 6.695-9.378 13.392-14.066 20.088-0.86 1.229 1.152 2.387 2.004 1.171 4.958-7.082 9.916-14.162 14.874-21.243L63.71 65.559z" fill="#fcfcfc" data-fill-palette-color="accent"></path><path d="M62.539 78.602c-0.86 1.229 1.152 2.387 2.004 1.171 3.303-4.718 6.606-9.435 9.909-14.153l-2.812-0.016C68.606 69.937 65.572 74.269 62.539 78.602z" fill="#fcfcfc" data-fill-palette-color="accent"></path><path d="M83.061 33.715c-2.327 0-4.582 0.526-6.704 1.564l-0.865 0.424-0.131-0.954c-1.264-9.222-9.244-16.175-18.563-16.175-10.335 0-18.743 8.408-18.743 18.744 0 1.152 0.11 2.322 0.328 3.477l0.182 0.964-0.971-0.146c-0.632-0.097-1.167-0.141-1.684-0.141-6.212 0-11.267 5.054-11.267 11.266 0 5.973 4.665 10.913 10.621 11.25 0.193 0.003 0.371 0.005 0.529 0.015l0.128 0.003 48.553 0.28c1.339 0 1.872-0.163 3.864-0.851 4.626-2.28 10.008-7.419 10.008-14.435C98.345 40.571 91.488 33.715 83.061 33.715z" fill="#fcfcfc" data-fill-palette-color="accent"></path></g></svg></g></svg></g></svg></g><defs></defs></svg><rect width="395.52" height="61.90369041501295" fill="none" stroke="none" visibility="hidden"></rect></g></svg></g></svg>